<svg width="78" height="16" viewBox="0 0 78 16" fill="none" xmlns="http://www.w3.org/2000/svg">
<path d="M8.89999 15L3.17999 7.64002L8.71999 0.880015H12.6L6.35999 8.22002V6.94002L12.8 15H8.89999ZM0.359985 15V0.880015H3.49999V15H0.359985Z" fill="#FFFCFC"/>
<path d="M16.51 9.18002V6.86002H19.49C20.1167 6.86002 20.5967 6.70002 20.93 6.38002C21.2767 6.06002 21.45 5.62668 21.45 5.08002C21.45 4.57335 21.2833 4.15335 20.95 3.82002C20.6167 3.48668 20.1367 3.32001 19.51 3.32001H16.51V0.880015H19.87C20.8033 0.880015 21.6233 1.06002 22.33 1.42002C23.0367 1.76668 23.59 2.25335 23.99 2.88002C24.39 3.50668 24.59 4.22668 24.59 5.04002C24.59 5.86668 24.39 6.59335 23.99 7.22002C23.59 7.83335 23.03 8.31335 22.31 8.66002C21.59 9.00668 20.7433 9.18002 19.77 9.18002H16.51ZM14.11 15V0.880015H17.25V15H14.11ZM21.79 15L17.39 8.92002L20.27 8.14002L25.51 15H21.79Z" fill="#FFFCFC"/>
<path d="M30.5398 9.74002L25.0998 0.880015H28.7398L32.9198 8.04002H30.5798L34.7598 0.880015H38.3198L32.8398 9.74002H30.5398ZM30.1598 15V8.30002H33.2998V15H30.1598Z" fill="#FFFCFC"/>
<path d="M41.842 9.86002V7.42002H44.882C45.2687 7.42002 45.622 7.34002 45.942 7.18002C46.262 7.02002 46.5154 6.78668 46.702 6.48002C46.8887 6.17335 46.982 5.80002 46.982 5.36002C46.982 4.93335 46.8887 4.56668 46.702 4.26002C46.5154 3.95335 46.262 3.72002 45.942 3.56002C45.622 3.40001 45.2687 3.32001 44.882 3.32001H41.842V0.880015H45.342C46.2354 0.880015 47.042 1.06002 47.762 1.42002C48.482 1.78002 49.0487 2.30002 49.462 2.98002C49.8887 3.64668 50.102 4.44002 50.102 5.36002C50.102 6.28002 49.8887 7.08002 49.462 7.76002C49.0487 8.42668 48.482 8.94668 47.762 9.32002C47.042 9.68002 46.2354 9.86002 45.342 9.86002H41.842ZM39.442 15V0.880015H42.582V15H39.442Z" fill="#FFFCFC"/>
<path d="M55.2067 15V1.08001H58.3467V15H55.2067ZM50.7867 3.62002V0.880015H62.7667V3.62002H50.7867Z" fill="#FFFCFC"/>
<path d="M70.518 15.24C69.4513 15.24 68.4646 15.0533 67.558 14.68C66.6646 14.3067 65.878 13.7867 65.198 13.12C64.518 12.4533 63.9913 11.68 63.618 10.8C63.2446 9.90668 63.058 8.94668 63.058 7.92002C63.058 6.88002 63.2446 5.92002 63.618 5.04002C63.9913 4.16002 64.5113 3.39335 65.178 2.74002C65.8446 2.07335 66.6246 1.56001 67.518 1.20001C68.4246 0.826681 69.4113 0.640015 70.478 0.640015C71.5313 0.640015 72.5046 0.826681 73.398 1.20001C74.3046 1.56001 75.0913 2.07335 75.758 2.74002C76.438 3.39335 76.9646 4.16668 77.338 5.06002C77.7113 5.94002 77.898 6.90002 77.898 7.94002C77.898 8.96668 77.7113 9.92668 77.338 10.82C76.9646 11.7 76.4446 12.4733 75.778 13.14C75.1113 13.7933 74.3246 14.3067 73.418 14.68C72.5246 15.0533 71.558 15.24 70.518 15.24ZM70.478 12.38C71.318 12.38 72.0513 12.1933 72.678 11.82C73.318 11.4467 73.8113 10.9267 74.158 10.26C74.5046 9.58002 74.678 8.80002 74.678 7.92002C74.678 7.25335 74.578 6.65335 74.378 6.12002C74.178 5.57335 73.8913 5.10668 73.518 4.72002C73.1446 4.32002 72.698 4.02002 72.178 3.82002C71.6713 3.60668 71.1046 3.50001 70.478 3.50001C69.638 3.50001 68.898 3.68668 68.258 4.06001C67.6313 4.42001 67.1446 4.93335 66.798 5.60002C66.4513 6.25335 66.278 7.02668 66.278 7.92002C66.278 8.58668 66.378 9.19335 66.578 9.74002C66.778 10.2867 67.058 10.76 67.418 11.16C67.7913 11.5467 68.238 11.8467 68.758 12.06C69.278 12.2733 69.8513 12.38 70.478 12.38Z" fill="#FFFCFC"/>
</svg>
